<?xml version="1.0" encoding="UTF-8"?>
<svg width="57px" height="57px" viewBox="0 0 57 57" version="1.1" xmlns="http://www.w3.org/2000/svg" xmlns:xlink="http://www.w3.org/1999/xlink">
    <title>5C6D84FE-9D01-4FE1-BDB3-C1805B5FDF10</title>
    <g id="Page-1" stroke="none" stroke-width="1" fill="none" fill-rule="evenodd">
        <g id="App-Development-Company-Dubai_NEw" transform="translate(-829.000000, -1403.000000)">
            <g id="Group-8" transform="translate(829.000000, 1403.000000)">
                <rect id="Rectangle-Copy-2" fill="#E7F599" x="0" y="0" width="57" height="57" rx="5"></rect>
                <g id="noun-developer-3264211" transform="translate(15.000000, 11.000000)" fill="#000000" fill-rule="nonzero">
                    <path d="M10.8592463,0 C7.35739466,0 4.49526295,2.91014665 4.49526295,6.4706061 C4.49526295,10.0311281 7.35745617,12.9393359 10.8592463,12.9393359 C14.3610365,12.9393359 17.2232297,10.0313783 17.2232297,6.4706061 C17.2232297,2.91008411 14.3610365,0 10.8592463,0 Z M10.8592463,13.8712133 C4.86260984,13.8712133 0,18.8130402 0,24.9098947 L0,30.8782877 C0.000240264054,31.1685206 0.113654863,31.4467829 0.31548651,31.6522462 C0.517318158,31.8574594 0.791001429,31.9727745 1.07644571,31.9727745 L9.4733853,31.9727745 C8.51589675,30.3366731 7.98702058,28.4611605 7.98702058,26.5259827 C7.98702058,23.6991421 9.09281344,20.9853777 11.0587836,18.986532 C12.7191029,17.2983955 14.8828327,16.2432477 17.1895152,15.9532399 C15.406911,14.6486742 13.2251583,13.8710257 10.8593632,13.8710257 L10.8592463,13.8712133 Z M18.4743743,18.0524657 C16.2645109,18.0524657 14.1438393,18.9456295 12.5812617,20.5343865 C11.0187457,22.1230811 10.140238,24.2793452 10.140238,26.5262328 C10.140238,28.7731205 11.0186842,30.9293221 12.5812617,32.5180791 C14.1438393,34.1068362 16.2645109,35 18.4743743,35 C20.6842377,35 22.8049094,34.1068362 24.3674869,32.5180791 C25.9300029,30.9293846 26.8085106,28.7731205 26.8085106,26.5262328 C26.8085106,24.2793452 25.9300644,22.1231436 24.3674869,20.5343865 C22.8049709,18.945692 20.6842377,18.0524657 18.4743743,18.0524657 Z M18.8842933,23.6573014 C18.9205753,23.6555913 18.9570984,23.6555913 18.9936178,23.6573014 C19.3213574,23.6734254 19.624111,23.840775 19.8158425,24.1117073 C20.0073463,24.3828837 20.0669326,24.7278471 19.9775501,25.0490884 L19.0503253,28.5697711 C18.9816046,28.8558512 18.80236,29.1016229 18.553189,29.2518553 C18.3037782,29.4018562 18.0055949,29.4436344 17.7259204,29.3674143 C17.4459937,29.2909441 17.2083562,29.1033178 17.0663322,28.8468013 C16.9240868,28.5900347 16.8899664,28.2858737 16.9709401,28.0032334 L17.898165,24.4825508 C17.9543903,24.2560795 18.0805344,24.0537934 18.257866,23.9052559 C18.4354314,23.7567184 18.6548061,23.6699912 18.8842995,23.6572889 L18.8842933,23.6573014 Z M15.7262911,23.689512 C16.0175114,23.6871064 16.2969521,23.8046144 16.5014595,24.0152061 C16.7059362,24.2260418 16.8179056,24.5116341 16.8116622,24.8077397 C16.8054151,25.1035951 16.6816699,25.3843028 16.4685447,25.585826 L15.5035517,26.5263967 L16.4685447,27.4647784 C16.6754264,27.665351 16.7950848,27.9414181 16.8018142,28.2319199 C16.8083018,28.5223967 16.7008984,28.8035922 16.5033848,29.013446 C16.3056375,29.22355 16.0341195,29.3449692 15.7484538,29.3510733 C15.4627634,29.3574251 15.1862014,29.247735 14.9800517,29.0466684 L13.203414,27.3172541 C12.9912484,27.1108151 12.8711102,26.824979 12.8711102,26.5264092 C12.8711102,26.2276268 12.9912484,25.9417844 13.203414,25.7353767 L14.9800517,24.0059624 C15.1790046,23.8061216 15.446672,23.6925201 15.7263711,23.6898308 L15.7262911,23.689512 Z M21.1885769,23.6917481 C21.4795573,23.6851518 21.7611632,23.7985075 21.9685432,24.006166 L23.7470877,25.7355803 L23.747328,25.7355803 C23.9594936,25.9420193 24.0796318,26.2276116 24.0796318,26.5264252 C24.0796318,26.8252389 23.9594936,27.1108061 23.747328,27.3174578 L21.9687835,29.046872 L21.9685433,29.0466277 C21.7623812,29.2479383 21.4858192,29.3576309 21.2001412,29.3515205 C20.9142109,29.3451687 20.6426929,29.223747 20.4452101,29.0138932 C20.2474628,28.8037892 20.1400575,28.5225937 20.1467807,28.2318667 C20.1532684,27.9413899 20.2731685,27.6653228 20.4800502,27.4647253 L21.4450432,26.5263435 L20.4800502,25.5857728 C20.2707695,25.3866638 20.1479864,25.1110908 20.1390918,24.8196321 C20.130442,24.5284235 20.2361632,24.2455143 20.4331907,24.0339781 C20.6302183,23.8221668 20.9019763,23.6990339 21.1886139,23.6919479 L21.1885769,23.6917481 Z" id="Shape"></path>
                </g>
            </g>
        </g>
    </g>
</svg>