<?xml version="1.0" encoding="UTF-8"?>
<svg width="57px" height="57px" viewBox="0 0 57 57" version="1.1" xmlns="http://www.w3.org/2000/svg" xmlns:xlink="http://www.w3.org/1999/xlink">
    <title>8D9E7F03-BA49-4DA6-B36B-4CBC92BF93D5</title>
    <g id="Page-1" stroke="none" stroke-width="1" fill="none" fill-rule="evenodd">
        <g id="App-Development-Company-Dubai_NEw" transform="translate(-245.000000, -1403.000000)">
            <g id="Group-9" transform="translate(245.000000, 1403.000000)">
                <rect id="Rectangle" fill="#E7F599" x="0" y="0" width="57" height="57" rx="5"></rect>
                <g id="noun-app-1226768" transform="translate(11.000000, 11.000000)" fill="#000000" fill-rule="nonzero">
                    <path d="M12.9296032,0 L2.42127401,0 C1.06536056,0 0,1.06536056 0,2.42127401 L0,12.9296032 C0,14.2855166 1.06536056,15.3508772 2.42127401,15.3508772 L12.9296032,15.3508772 C14.2855166,15.3508772 15.3508772,14.2855166 15.3508772,12.9296032 L15.3508772,2.42127401 C15.3508772,1.11369957 14.2855166,0 12.9296032,0 Z M13.4136591,12.9296032 C13.4136591,13.2201042 13.2201042,13.4139963 12.9292659,13.4139963 L2.42093676,13.4136586 C2.13043576,13.4136586 1.9365436,13.2201037 1.9365436,12.9292654 L1.9365436,2.42093624 C1.9365436,2.13043524 2.13009851,1.93654308 2.42093676,1.93654308 L12.9292659,1.93654308 C13.2197669,1.93654308 13.4136591,2.13009799 13.4136591,2.42093624 L13.4136591,12.9296032 Z" id="Shape"></path>
                    <path d="M32.578726,0 L22.0703968,0 C20.7144834,0 19.6491228,1.06536056 19.6491228,2.42127401 L19.6491228,12.9296032 C19.6491228,14.2855166 20.7144834,15.3508772 22.0703968,15.3508772 L32.578726,15.3508772 C33.9346394,15.3508772 35,14.2855166 35,12.9296032 L35,2.42127401 C35,1.11369957 33.8863004,0 32.578726,0 Z M33.0631192,12.9296032 C33.0631192,13.2201042 32.8695642,13.4139963 32.578726,13.4139963 L22.0703968,13.4136586 C21.7798958,13.4136586 21.5860037,13.2201037 21.5860037,12.9292654 L21.5863414,2.42093624 C21.5863414,2.13043524 21.7798963,1.93654308 22.0707346,1.93654308 L32.5790638,1.93654308 C32.8695648,1.93654308 33.0634569,2.13009799 33.0634569,2.42093624 L33.0631192,12.9296032 Z" id="Shape"></path>
                    <path d="M12.9296032,19.6491228 L2.42127401,19.6491228 C1.06536056,19.6491228 0,20.7144834 0,22.0703968 L0,32.578726 C0,33.9346394 1.06536056,35 2.42127401,35 L12.9296032,35 C14.2855166,35 15.3508772,33.9346394 15.3508772,32.578726 L15.3508772,22.0703968 C15.3508772,20.7144834 14.2855166,19.6491228 12.9296032,19.6491228 Z M13.4136591,32.578726 C13.4136591,32.869227 13.2201042,33.0631192 12.9292659,33.0631192 L2.42093676,33.0631192 C2.13043576,33.0631192 1.9365436,32.8695642 1.9365436,32.578726 L1.9365436,22.0703968 C1.9365436,21.7798958 2.13009851,21.5860037 2.42093676,21.5860037 L12.9292659,21.5860037 C13.2197669,21.5860037 13.4136591,21.7795586 13.4136591,22.0703968 L13.4136591,32.578726 Z" id="Shape"></path>
                    <path d="M32.578726,19.6491228 L22.0703968,19.6491228 C20.7144834,19.6491228 19.6491228,20.7144834 19.6491228,22.0703968 L19.6491228,32.578726 C19.6491228,33.9346394 20.7144834,35 22.0703968,35 L32.578726,35 C33.9346394,35 35,33.9346394 35,32.578726 L35,22.0703968 C35,20.7144834 33.8863004,19.6491228 32.578726,19.6491228 Z" id="Path"></path>
                </g>
            </g>
        </g>
    </g>
</svg>