<svg width="70" height="70" viewBox="0 0 70 70" fill="none" xmlns="http://www.w3.org/2000/svg">
<path d="M66.7552 29.0771H49.5492C48.3527 29.0771 47.3828 28.1709 47.3828 27.053V17.1013C47.3828 15.9834 48.3527 15.0771 49.5492 15.0771H66.7549C67.9514 15.0771 68.9213 15.9834 68.9213 17.1013V27.0527C68.9216 28.1706 67.9517 29.0771 66.7552 29.0771Z" fill="#7FEBA1"/>
<path d="M41.4725 70H8.98379C8.48476 70 8.00187 69.792 7.65871 69.4294C7.31582 69.0668 7.13508 68.5732 7.16297 68.0748L8.31222 48.2588C8.42926 46.1579 9.87984 44.4003 11.9216 43.8862L17.5484 42.4698C19.7436 41.9172 21.1848 41.25 22.7104 40.4978C23.7103 40.0045 24.3316 39.0056 24.3316 37.8905V36.1991C24.3316 35.9598 24.4565 35.738 24.6613 35.6142C24.8659 35.4903 25.1202 35.4824 25.3323 35.5934C26.7282 36.3243 28.2327 36.6948 29.8033 36.6948C31.1721 36.6948 32.5002 36.4099 33.7507 35.8477C33.9746 35.7468 34.2357 35.7741 34.434 35.9191C34.6325 36.064 34.7378 36.3043 34.7102 36.5482C34.6979 36.6576 34.6918 36.7552 34.6918 36.8466V56.8277C34.6918 58.2871 35.8791 59.4743 37.3384 59.4743H47.6066C47.9842 59.4743 48.2902 59.7803 48.2902 60.1579V65.7084C48.2902 66.0861 47.9842 66.392 47.6066 66.392H41.4728C40.9853 66.392 40.5888 66.7885 40.5888 67.2758V67.7486C40.5888 68.2361 40.9853 68.6326 41.4728 68.6326C41.8504 68.6326 42.1564 68.9386 42.1564 69.3162C42.1564 69.6938 41.8502 70 41.4725 70ZM25.6985 37.266V37.8908C25.6985 39.5304 24.7852 40.999 23.3146 41.7241C21.718 42.5114 20.207 43.2106 17.882 43.7957L12.2552 45.2121C10.7967 45.5793 9.76062 46.835 9.67695 48.3364L8.52769 68.1524C8.52086 68.2777 8.56488 68.398 8.65211 68.4898C8.73906 68.582 8.85691 68.6326 8.98379 68.6326H39.4021C39.2859 68.3611 39.2213 68.0622 39.2213 67.7486V67.2758C39.2213 66.0344 40.2311 65.0248 41.4725 65.0248H46.9227V60.8415H37.3382C35.125 60.8415 33.3244 59.0409 33.3244 56.8277V37.4831C32.1915 37.8676 31.0114 38.062 29.8033 38.062C28.4011 38.0623 27.0011 37.7891 25.6985 37.266Z" fill="#32335A"/>
<path d="M15.6523 69.7459C15.2747 69.7459 14.9688 69.4399 14.9688 69.0623V51.7966C14.9688 51.419 15.2747 51.113 15.6523 51.113C16.03 51.113 16.3359 51.419 16.3359 51.7966V69.0623C16.3359 69.4399 16.03 69.7459 15.6523 69.7459Z" fill="#32335A"/>
<path d="M29.9565 31.6209C28.6268 31.6209 27.3783 31.0784 26.6167 30.1697C26.3742 29.8802 26.4122 29.4492 26.7015 29.2067C26.9911 28.9642 27.422 29.0024 27.6646 29.2915C28.1696 29.8941 29.0263 30.2537 29.9565 30.2537C30.8865 30.2537 31.7434 29.8941 32.2485 29.2915C32.491 29.0022 32.9219 28.9639 33.2112 29.2067C33.5005 29.4492 33.5385 29.8804 33.296 30.1695C32.5342 31.0784 31.286 31.6209 29.9565 31.6209Z" fill="#32335A"/>
<path d="M34.6464 25.2802C35.4177 25.2802 36.0429 24.655 36.0429 23.8838C36.0429 23.1125 35.4177 22.4873 34.6464 22.4873C33.8752 22.4873 33.25 23.1125 33.25 23.8838C33.25 24.655 33.8752 25.2802 34.6464 25.2802Z" fill="black"/>
<path d="M25.2675 25.2802C26.0388 25.2802 26.664 24.655 26.664 23.8838C26.664 23.1125 26.0388 22.4873 25.2675 22.4873C24.4963 22.4873 23.8711 23.1125 23.8711 23.8838C23.8711 24.655 24.4963 25.2802 25.2675 25.2802Z" fill="black"/>
<path d="M54.8497 25.9033C54.6747 25.9033 54.4997 25.8365 54.3663 25.7031L51.216 22.5528C50.9488 22.286 50.9488 21.8531 51.216 21.5862L54.3663 18.436C54.6331 18.1688 55.0663 18.1688 55.3329 18.436C55.6 18.7028 55.6 19.1357 55.3329 19.4026L52.666 22.0697L55.3329 24.7368C55.6 25.0037 55.6 25.4365 55.3329 25.7034C55.1997 25.8365 55.0247 25.9033 54.8497 25.9033Z" fill="#32335A"/>
<path d="M61.6369 25.9033C61.4619 25.9033 61.2869 25.8366 61.1535 25.7031C60.8863 25.4363 60.8863 25.0034 61.1535 24.7365L63.8203 22.0694L61.1535 19.4023C60.8863 19.1354 60.8863 18.7026 61.1535 18.4357C61.4204 18.1686 61.8535 18.1686 62.1201 18.4357L65.2704 21.586C65.5375 21.8529 65.5375 22.2857 65.2704 22.5526L62.1201 25.7031C61.9867 25.8366 61.8117 25.9033 61.6369 25.9033Z" fill="#32335A"/>
<path d="M57.1488 26.3076C57.082 26.3076 57.0145 26.2977 56.9475 26.2772C56.5868 26.1662 56.3842 25.7837 56.4952 25.4227L58.6827 18.3134C58.7938 17.9524 59.176 17.7498 59.5372 17.8611C59.8979 17.9721 60.1005 18.3546 59.9895 18.7156L57.802 25.825C57.7115 26.1189 57.4408 26.3076 57.1488 26.3076Z" fill="#32335A"/>
<path d="M13.6768 7.98437C12.8291 7.82031 12.1455 7.16406 11.9814 6.31641C11.9814 6.28906 11.8994 6.28906 11.8994 6.31641C11.7354 7.16406 11.0518 7.82031 10.2041 7.98437C10.1768 7.98437 10.1768 8.03906 10.2041 8.06641C11.0518 8.23047 11.7354 8.88672 11.8994 9.73437C11.8994 9.76172 11.9814 9.76172 11.9814 9.73437C12.1455 8.88672 12.8291 8.23047 13.6768 8.06641C13.7041 8.03906 13.7041 7.98437 13.6768 7.98437Z" fill="#32335A"/>
<path d="M2.517 23.6523H3.14591V24.2813C3.14591 24.7734 3.52872 25.1562 4.02091 25.1562C4.48575 25.1562 4.89591 24.7734 4.89591 24.3086V24.2813V23.6523H5.52481C6.017 23.6523 6.39982 23.2695 6.39982 22.7773C6.39982 22.3125 6.017 21.9023 5.55216 21.9023H5.52481H4.89591V21.2734C4.89591 20.7813 4.5131 20.3984 4.02091 20.3984C3.55606 20.3984 3.14591 20.7812 3.14591 21.2461V21.2734V21.9023H2.517C2.02481 21.9023 1.642 22.2852 1.642 22.7773C1.61466 23.2422 1.99747 23.6523 2.517 23.6523C2.48966 23.6523 2.48966 23.6523 2.517 23.6523Z" fill="#32335A"/>
<path d="M6.39844 39.1836C6.91189 39.1836 7.32813 38.7674 7.32813 38.2539C7.32813 37.7405 6.91189 37.3242 6.39844 37.3242C5.88499 37.3242 5.46875 37.7405 5.46875 38.2539C5.46875 38.7674 5.88499 39.1836 6.39844 39.1836Z" fill="#32335A"/>
<path d="M45.7773 1.85938C46.2908 1.85938 46.707 1.44314 46.707 0.929688C46.707 0.416235 46.2908 0 45.7773 0C45.2639 0 44.8477 0.416235 44.8477 0.929688C44.8477 1.44314 45.2639 1.85938 45.7773 1.85938Z" fill="#32335A"/>
<path d="M29.8032 38.0622C23.6957 38.0622 18.7266 33.0933 18.7266 26.9856V18.2632C18.7266 16.6994 19.321 15.2149 20.4003 14.0831C21.3239 13.1143 22.8164 13.011 23.8748 13.8392C25.0473 14.7569 27.0298 15.8506 29.8147 15.8506C32.5939 15.8506 34.5657 14.761 35.7303 13.8466C36.7901 13.0148 38.2847 13.1163 39.2062 14.0829C40.2855 15.2146 40.8799 16.6991 40.8799 18.2629V26.9856C40.8799 29.5064 39.9997 31.9788 38.4015 33.9473C38.2716 34.1072 38.0766 34.1999 37.8707 34.1999H37.3384C35.9922 34.1999 34.8624 35.2095 34.7101 36.5482C34.6827 36.788 34.5313 36.9958 34.3111 37.0945C32.8819 37.7368 31.3654 38.0622 29.8032 38.0622ZM22.2662 14.6494C21.9457 14.6494 21.6291 14.7755 21.3934 15.0227C20.5542 15.9029 20.094 17.0521 20.094 18.2632V26.9856C20.094 32.3395 24.4496 36.695 29.8035 36.695C31.0509 36.695 32.265 36.458 33.4184 35.9898C33.8157 34.1641 35.4344 32.833 37.3384 32.833H37.5382C38.8138 31.1511 39.5127 29.0872 39.5127 26.9856V18.2632C39.5127 17.0524 39.0525 15.9029 38.2169 15.0265C37.7835 14.5723 37.0775 14.5272 36.5744 14.9223C35.2403 15.9696 32.9844 17.2181 29.8147 17.2181C26.6401 17.2181 24.3741 15.9663 23.0321 14.916C22.8038 14.7372 22.5336 14.6494 22.2662 14.6494Z" fill="#32335A"/>
<path d="M40.865 28.4266C40.6142 28.4266 40.352 28.4039 40.063 28.3574C39.7146 28.3011 39.4661 27.9888 39.4899 27.6367C39.5065 27.3862 39.5145 27.1795 39.5145 26.9856V19.1177C39.5145 18.7808 39.76 18.494 40.0931 18.4423C40.3536 18.4019 40.6131 18.3813 40.865 18.3813C43.6346 18.3813 45.8877 20.6345 45.8877 23.4041C45.8877 26.1735 43.6346 28.4266 40.865 28.4266ZM40.8817 19.7485V26.9856C40.8817 27.0099 40.8816 27.0345 40.8814 27.0594C42.8895 27.0507 44.5206 25.4142 44.5206 23.4038C44.5206 21.3938 42.8898 19.7573 40.8817 19.7485Z" fill="#32335A"/>
<path d="M18.7454 28.4266C15.9758 28.4266 13.7227 26.1735 13.7227 23.4039C13.7227 20.6345 15.9758 18.3811 18.7454 18.3811C18.997 18.3811 19.2568 18.4016 19.5173 18.4421C19.8504 18.4938 20.0959 18.7806 20.0959 19.1175V26.9856C20.0959 27.1795 20.1039 27.3862 20.1205 27.6364C20.1443 27.9883 19.8963 28.3006 19.548 28.3569C19.2598 28.404 18.9973 28.4266 18.7454 28.4266ZM18.7287 19.7486C16.7206 19.7576 15.0898 21.3941 15.0898 23.4042C15.0898 25.4145 16.7209 27.051 18.729 27.0597C18.729 27.0349 18.7287 27.0102 18.7287 26.9859V19.7486Z" fill="#32335A"/>
<path d="M43.07 20.3564C42.9494 20.3564 42.8288 20.3244 42.7214 20.2607C42.1559 19.9254 41.5133 19.7482 40.8628 19.7482C40.6813 19.7482 40.4923 19.7633 40.3009 19.7931C40.1035 19.8237 39.9025 19.7666 39.7513 19.6367C39.5998 19.5068 39.5123 19.3173 39.5123 19.1177V18.2632C39.5123 17.0524 39.0521 15.9029 38.2165 15.0265C37.7834 14.5723 37.0771 14.5272 36.5742 14.9224C35.2401 15.9696 32.9843 17.2181 29.8146 17.2181C26.64 17.2181 24.374 15.9663 23.032 14.9161C22.5302 14.5234 21.8255 14.5693 21.393 15.023C20.5538 15.9032 20.0936 17.0527 20.0936 18.2635V19.118C20.0936 19.3176 20.0064 19.5074 19.8546 19.637C19.7031 19.7668 19.5019 19.824 19.305 19.7934C19.1136 19.7638 18.9246 19.7485 18.7431 19.7485C18.1 19.7485 17.4639 19.9216 16.9037 20.2492C16.692 20.3725 16.4306 20.3739 16.2184 20.2519C16.006 20.13 15.875 19.9038 15.875 19.6591V15.3139C15.875 9.29965 20.1784 4.1913 26.1073 3.16755C31.3289 2.26602 35.6749 2.87141 38.0319 4.82868C39.4204 5.98176 40.1445 7.5584 40.185 9.51594C41.5314 9.52798 43.7536 10.4117 43.7536 16.1052V19.6728C43.7536 19.9183 43.6218 20.1453 43.4082 20.2667C43.3035 20.3266 43.1868 20.3564 43.07 20.3564ZM40.8795 18.3813C41.3919 18.383 41.9002 18.4645 42.3864 18.6206V16.1055C42.3864 12.7868 41.5738 10.8831 40.1571 10.8831C39.4292 10.8831 38.829 10.304 38.8189 9.59251C38.7973 8.02653 38.2386 6.77774 37.1586 5.88059C35.1097 4.17926 31.1662 3.68161 26.34 4.51477C21.0684 5.42505 17.2422 9.96684 17.2422 15.3139V18.6129C17.7215 18.4617 18.2219 18.383 18.7261 18.3813V18.2635C18.7261 16.6997 19.3203 15.2152 20.3998 14.0832C21.3235 13.1144 22.8159 13.011 23.8744 13.8393C25.0469 14.7569 27.0293 15.8507 29.8143 15.8507C32.5935 15.8507 34.5653 14.761 35.7298 13.8466C36.7897 13.0149 38.2843 13.1163 39.2058 14.0829C40.285 15.2147 40.8795 16.6991 40.8795 18.2632V18.3813Z" fill="#32335A"/>
<path d="M15.6499 70H8.98379C8.48476 70 8.00187 69.7919 7.65871 69.4293C7.31582 69.0668 7.13508 68.5732 7.16297 68.0747L7.77519 57.5189C7.79625 57.1575 8.09539 56.875 8.45769 56.875H15.6499C16.0275 56.875 16.3335 57.181 16.3335 57.5586V69.3164C16.3335 69.694 16.0275 70 15.6499 70ZM9.10246 58.2422L8.52769 68.1524C8.52086 68.2776 8.56488 68.3979 8.65211 68.4898C8.73906 68.582 8.85691 68.6325 8.98379 68.6325H14.9663V58.2419H9.10246V58.2422Z" fill="#32335A"/>
<path d="M29.8043 46.9875C29.5549 46.9875 29.2875 46.9774 28.987 46.9563C28.6323 46.9315 28.3556 46.6389 28.3509 46.2834C28.3504 46.238 28.3378 46.1721 28.2812 46.1155L23.2705 41.1048C23.1357 40.97 23.0632 40.7849 23.0709 40.5943C23.0785 40.4037 23.1652 40.2249 23.3104 40.1013C23.9601 39.5473 24.3328 38.7415 24.3328 37.8908V36.1993C24.3328 35.9601 24.4577 35.7383 24.6625 35.6144C24.8671 35.4906 25.1214 35.4826 25.3336 35.5936C26.7295 36.3245 28.2339 36.6951 29.8045 36.6951C31.1734 36.6951 32.5014 36.4101 33.7519 35.8479C33.9758 35.747 34.237 35.7744 34.4352 35.9193C34.6337 36.0642 34.739 36.3046 34.7114 36.5485C34.6991 36.6579 34.6931 36.7555 34.6931 36.8468V42.741C34.6931 42.9223 34.6211 43.0962 34.4929 43.2245L31.6016 46.1158C31.5485 46.1691 31.5351 46.2336 31.5335 46.2782C31.5209 46.6203 31.2568 46.9003 30.9161 46.9331C30.5395 46.9689 30.1657 46.9875 29.8043 46.9875ZM29.5735 45.617C29.8311 45.6239 30.0648 45.6198 30.3145 45.6067C30.3927 45.4377 30.5002 45.2826 30.6341 45.1486L33.3253 42.4575V37.4831C32.1925 37.8675 31.0123 38.062 29.8043 38.062C28.4023 38.062 27.0023 37.7888 25.6997 37.2657V37.8905C25.6997 38.8943 25.3475 39.8554 24.7153 40.6164L29.2475 45.1486C29.3851 45.2862 29.4947 45.4448 29.5735 45.617Z" fill="#32335A"/>
<path d="M59.0138 70.0001H41.4739C40.2325 70.0001 39.2227 68.9903 39.2227 67.7489V67.2761C39.2227 66.0347 40.2325 65.0251 41.4739 65.0251H59.0138C60.2552 65.0251 61.265 66.0349 61.265 67.2761V67.7489C61.265 68.9903 60.2552 70.0001 59.0138 70.0001ZM41.4739 66.3923C40.9863 66.3923 40.5898 66.7888 40.5898 67.2761V67.7489C40.5898 68.2364 40.9863 68.6329 41.4739 68.6329H59.0138C59.5013 68.6329 59.8978 68.2364 59.8978 67.7489V67.2761C59.8978 66.7888 59.5013 66.3923 59.0138 66.3923H41.4739Z" fill="#32335A"/>
<path d="M63.1472 60.8418H52.8791C52.5015 60.8418 52.1955 60.5358 52.1955 60.1582V52.3269C52.1955 51.9723 51.907 51.6835 51.5524 51.6835H48.9331C48.5785 51.6835 48.2897 51.972 48.2897 52.3269V60.1582C48.2897 60.5358 47.9838 60.8418 47.6061 60.8418H37.338C35.1248 60.8418 33.3242 59.0412 33.3242 56.828V36.8468C33.3242 34.6336 35.1248 32.833 37.338 32.833H63.1472C65.3604 32.833 67.161 34.6336 67.161 36.8468V56.828C67.161 59.0412 65.3604 60.8418 63.1472 60.8418ZM53.5627 59.4746H63.1472C64.6066 59.4746 65.7938 58.2873 65.7938 56.828V36.8468C65.7938 35.3875 64.6066 34.2002 63.1472 34.2002H37.338C35.8787 34.2002 34.6914 35.3875 34.6914 36.8468V56.828C34.6914 58.2873 35.8787 59.4746 37.338 59.4746H46.9225V52.3269C46.9225 51.2184 47.8243 50.3163 48.9331 50.3163H51.5524C52.6609 50.3163 53.5627 51.2181 53.5627 52.3269V59.4746Z" fill="#32335A"/>
<path d="M52.8821 66.3923H47.6094C47.2318 66.3923 46.9258 66.0864 46.9258 65.7087V52.327C46.9258 51.2185 47.8276 50.3164 48.9364 50.3164H51.5556C52.6641 50.3164 53.5659 51.2182 53.5659 52.327V65.7087C53.5657 66.0864 53.2594 66.3923 52.8821 66.3923ZM48.2927 65.0252H52.1982V52.327C52.1982 51.9723 51.9097 51.6836 51.5551 51.6836H48.9358C48.5812 51.6836 48.2924 51.9721 48.2924 52.327V65.0252H48.2927Z" fill="#32335A"/>
</svg>
