<?xml version="1.0" encoding="UTF-8"?>
<svg width="57px" height="57px" viewBox="0 0 57 57" version="1.1" xmlns="http://www.w3.org/2000/svg" xmlns:xlink="http://www.w3.org/1999/xlink">
    <title>082895D9-B22D-40BC-9907-34B816C66C39</title>
    <g id="Page-1" stroke="none" stroke-width="1" fill="none" fill-rule="evenodd">
        <g id="App-Development-Company-Dubai_NEw" transform="translate(-1266.000000, -1403.000000)">
            <g id="Group-7" transform="translate(1266.000000, 1403.000000)">
                <rect id="Rectangle-Copy-3" fill="#E7F599" x="0" y="0" width="57" height="57" rx="5"></rect>
                <g id="noun-business-to-business-2973427" transform="translate(11.000000, 11.000000)" fill="#000000" fill-rule="nonzero">
                    <path d="M17.5,35 L17.5,0 L0,0 L0,35 L3.28125,35 L3.28125,25.15625 C3.28125,24.5527375 3.770025,24.0625 4.375,24.0625 L13.125,24.0625 C13.729975,24.0625 14.21875,24.5527375 14.21875,25.15625 L14.21875,35 L17.5,35 Z M12.03125,2.1875 L14.21875,2.1875 L14.21875,4.375 L12.03125,4.375 L12.03125,2.1875 Z M12.03125,7.65625 L14.21875,7.65625 L14.21875,9.84375 L12.03125,9.84375 L12.03125,7.65625 Z M12.03125,13.125 L14.21875,13.125 L14.21875,15.3125 L12.03125,15.3125 L12.03125,13.125 Z M5.46875,20.78125 L3.28125,20.78125 L3.28125,18.59375 L5.46875,18.59375 L5.46875,20.78125 Z M5.46875,15.3125 L3.28125,15.3125 L3.28125,13.125 L5.46875,13.125 L5.46875,15.3125 Z M5.46875,9.84375 L3.28125,9.84375 L3.28125,7.65625 L5.46875,7.65625 L5.46875,9.84375 Z M5.46875,4.375 L3.28125,4.375 L3.28125,2.1875 L5.46875,2.1875 L5.46875,4.375 Z M9.84375,20.78125 L7.65625,20.78125 L7.65625,18.59375 L9.84375,18.59375 L9.84375,20.78125 Z M9.84375,15.3125 L7.65625,15.3125 L7.65625,13.125 L9.84375,13.125 L9.84375,15.3125 Z M9.84375,9.84375 L7.65625,9.84375 L7.65625,7.65625 L9.84375,7.65625 L9.84375,9.84375 Z M9.84375,4.375 L7.65625,4.375 L7.65625,2.1875 L9.84375,2.1875 L9.84375,4.375 Z M12.03125,20.78125 L12.03125,18.59375 L14.21875,18.59375 L14.21875,20.78125 L12.03125,20.78125 Z" id="Shape"></path>
                    <polygon id="Path" points="5.52631579 25.7894737 11.9736842 25.7894737 11.9736842 35 5.52631579 35"></polygon>
                    <path d="M35,11.0526316 L19.3421053,11.0526316 L19.3421053,35 L35,35 L35,11.0526316 Z M23.8157895,26.291866 L21.5789474,26.291866 L21.5789474,24.1148325 L23.8157895,24.1148325 L23.8157895,26.291866 Z M23.8157895,20.8492823 L21.5789474,20.8492823 L21.5789474,18.6722488 L23.8157895,18.6722488 L23.8157895,20.8492823 Z M23.8157895,15.4066986 L21.5789474,15.4066986 L21.5789474,13.2296651 L23.8157895,13.2296651 L23.8157895,15.4066986 Z M28.2894737,26.291866 L26.0526316,26.291866 L26.0526316,24.1148325 L28.2894737,24.1148325 L28.2894737,26.291866 Z M28.2894737,20.8492823 L26.0526316,20.8492823 L26.0526316,18.6722488 L28.2894737,18.6722488 L28.2894737,20.8492823 Z M28.2894737,15.4066986 L26.0526316,15.4066986 L26.0526316,13.2296651 L28.2894737,13.2296651 L28.2894737,15.4066986 Z M32.7631579,26.291866 L30.5263158,26.291866 L30.5263158,24.1148325 L32.7631579,24.1148325 L32.7631579,26.291866 Z M32.7631579,20.8492823 L30.5263158,20.8492823 L30.5263158,18.6722488 L32.7631579,18.6722488 L32.7631579,20.8492823 Z M32.7631579,15.4066986 L30.5263158,15.4066986 L30.5263158,13.2296651 L32.7631579,13.2296651 L32.7631579,15.4066986 Z" id="Shape"></path>
                </g>
            </g>
        </g>
    </g>
</svg>